<svg version="1" xmlns="http://www.w3.org/2000/svg" width="202.667" height="202.667" viewBox="0 0 152.000000 152.000000"><path d="M18.9 30.9c-2.2 1.8-2.4 2.8-2.7 13.2-.5 14 .6 18.3 5 19.8 1.7.6 6.2 1.1 9.9 1.1H38v-9h-5.5c-4.3 0-5.6-.4-6.5-1.9-1.2-2.3-1.3-13-.1-14.9.5-.9 3-1.2 8.7-1l7.9.3v32l-13 .5-13 .5v8l15.3.3c15.1.2 15.3.2 17.7-2.2C52 75.1 52 75.1 52 54.5c0-20.5 0-20.6-2.5-23-2.3-2.4-2.9-2.5-15.3-2.5-11.3 0-13.3.3-15.3 1.9zM60.5 31.5c-2.4 2.3-2.5 3-2.5 14.4 0 14 .7 16.4 5.1 18 4 1.4 21.6 1.4 25.6.1 4.4-1.6 5.3-4.6 5.3-18.1 0-11.4-.1-12.1-2.5-14.4C89.2 29.1 88.6 29 76 29s-13.2.1-15.5 2.5zm24.3 14.3c.2 4.6-.2 7.9-.9 8.8-1.5 1.8-14 1.9-15.7.2-1.3-1.3-1.7-15-.5-16.2.4-.4 4.3-.5 8.8-.4l8 .3.3 7.3zM102.5 31.5c-2.4 2.3-2.5 2.9-2.5 15.3 0 17.5.2 17.7 15.8 17.4l6.2-.2v-8h-5.2c-7.7 0-7.9-.4-7.6-9.6l.3-7.9 7.9-.3c5.7-.2 8.2.1 8.7 1 1 1.5 1.2 27.8.3 30.2-.5 1.3-2.7 1.6-13.5 1.6H100v9h15.5c19.8 0 19 .6 20-15.4.4-6.3.6-16.1.3-21.7-.5-13.8-.6-13.9-18-13.9-12.4 0-13 .1-15.3 2.5zM18.9 89.9c-2.3 1.9-2.4 2.4-2.4 15.6 0 17.9-.3 17.7 16.9 17.3l12.1-.3v-8l-9.7-.3c-11.3-.3-11.1-.2-10.6-10.7l.3-6 9.7-.3c10.5-.3 11.2-.7 10.1-6.2l-.5-3H33c-10.1 0-12.1.3-14.1 1.9zM54 90c-1.8 1.8-2 3.3-2 15.5 0 18-.5 17.5 17 17.5 12.6 0 13.2-.1 15.5-2.5 2.4-2.3 2.5-3 2.5-14.8 0-11.1-.2-12.7-2.1-15.1-2-2.6-2.2-2.6-15.5-2.6-12.1 0-13.6.2-15.4 2zm23.5 15.5v8h-16l-.3-8.3-.3-8.3 8.3.3 8.3.3v8zM95.2 90.3c-2.1 2.2-2.2 3.3-2.2 17.5V123h8.9l.3-12.8.3-12.7 3.8-.3 3.7-.3V123h9V97h8v26.1l4.3-.3c4.1-.3 4.2-.4 4.5-4.3.2-2.2.1-10-.3-17.3l-.7-13.2h-18.7c-18.3 0-18.8.1-20.9 2.3z"/></svg>