<svg xmlns="http://www.w3.org/2000/svg" width="39" height="32" style=""><rect id="backgroundrect" width="100%" height="100%" x="0" y="0" fill="none" stroke="none"/>
    <defs>
        <filter id="a" width="49" height="21" x="0" y="21" filterUnits="userSpaceOnUse">
            <feOffset dy="1" in="SourceAlpha"/>
            <feGaussianBlur result="blurOut" stdDeviation="1.732"/>
            <feFlood flood-color="#000" result="floodOut"/>
            <feComposite in="floodOut" in2="blurOut" operator="atop"/>
            <feComponentTransfer>
                <feFuncA slope=".45" type="linear"/>
            </feComponentTransfer>
            <feMerge>
                <feMergeNode/>
                <feMergeNode in="SourceGraphic"/>
            </feMerge>
        </filter>
        <linearGradient id="b" x1="0%" x2="0%" y1="100%" y2="0%">
            <stop offset="0%" stop-color="#00905E"/>
            <stop offset="99%" stop-color="#00C78C"/>
        </linearGradient>
        <filter id="c" width="49" height="27" x="0" y="0" filterUnits="userSpaceOnUse">
            <feOffset dy="1" in="SourceAlpha"/>
            <feGaussianBlur result="blurOut" stdDeviation="1.732"/>
            <feFlood flood-color="#000" result="floodOut"/>
            <feComposite in="floodOut" in2="blurOut" operator="atop"/>
            <feComponentTransfer>
                <feFuncA slope=".45" type="linear"/>
            </feComponentTransfer>
            <feMerge>
                <feMergeNode/>
                <feMergeNode in="SourceGraphic"/>
            </feMerge>
        </filter>
        <linearGradient id="d" x1="0%" x2="0%" y1="100%" y2="0%">
            <stop offset="0%" stop-color="#7A3DC6"/>
            <stop offset="100%" stop-color="#B65AE2"/>
        </linearGradient>
    </defs>
    
    
    
    
<g class="currentLayer" style=""><title>Layer 1</title><path fill="#9D5630" fill-rule="evenodd" d="M37,32 v-9 h-3 c-0.38900000000000007,0 -1,0.5980000000000001 -1,1 v8 h-2 v-9 h-3 c-0.38900000000000007,0 -1,0.5980000000000001 -1,1 v8 h-2 v-9 c0,-1.044 0.99,-2 2,-2 h12 v11 h-2 zm-17,0 h-7 c-1.057,0 -2,-0.9620000000000001 -2,-2 v-7 c0,-1.038 0.9430000000000001,-2 2,-2 h7 c1.057,0 2,0.9620000000000001 2,2 v7 c0,1.038 -0.9430000000000001,2 -2,2 zm0,-8 c0,-0.4 -0.5930000000000001,-1 -1,-1 h-5 c-0.40700000000000003,0 -1,0.6000000000000001 -1,1 v5 c0,0.4 0.5930000000000001,1 1,1 h5 c0.40700000000000003,0 1,-0.6000000000000001 1,-1 v-5 zM0,30 v-7 c0,-1.043 0.9520000000000001,-2 2,-2 h6 v2 H3 c-0.404,0 -1,0.5980000000000001 -1,1 v5 c0,0.402 0.5960000000000001,1 1,1 h5 v2 H2 c-1.048,0 -2,-0.9560000000000001 -2,-2 z" filter="url(#a)" id="svg_1" class=""/><path fill="url(#b)" d="M37,32 v-9 h-3 c-0.38900000000000007,0 -1,0.5980000000000001 -1,1 v8 h-2 v-9 h-3 c-0.38900000000000007,0 -1,0.5980000000000001 -1,1 v8 h-2 v-9 c0,-1.044 0.99,-2 2,-2 h12 v11 h-2 zm-17,0 h-7 c-1.057,0 -2,-0.9620000000000001 -2,-2 v-7 c0,-1.038 0.9430000000000001,-2 2,-2 h7 c1.057,0 2,0.9620000000000001 2,2 v7 c0,1.038 -0.9430000000000001,2 -2,2 zm0,-8 c0,-0.4 -0.5930000000000001,-1 -1,-1 h-5 c-0.40700000000000003,0 -1,0.6000000000000001 -1,1 v5 c0,0.4 0.5930000000000001,1 1,1 h5 c0.40700000000000003,0 1,-0.6000000000000001 1,-1 v-5 zM0,30 v-7 c0,-1.043 0.9520000000000001,-2 2,-2 h6 v2 H3 c-0.404,0 -1,0.5980000000000001 -1,1 v5 c0,0.402 0.5960000000000001,1 1,1 h5 v2 H2 c-1.048,0 -2,-0.9560000000000001 -2,-2 z" id="svg_2" class=""/><path fill="#484848" fill-rule="evenodd" d="M37,17 h-9 v-2 h8 c0.3980000000000001,0 1,-0.6010000000000001 1,-1 V3 c0,-0.3990000000000001 -0.6020000000000001,-1 -1,-1 h-5 c-0.3980000000000001,0 -1,0.6010000000000001 -1,1 v5 c0,0.3990000000000001 0.6020000000000001,1 1,1 h3 v2 h-4 c-1.032,0 -2,-0.9640000000000001 -2,-2 V2 c0,-1.036 0.9680000000000001,-2 2,-2 h7 c1.032,0 2,0.9640000000000001 2,2 v13 c0,1.036 -0.9680000000000001,2 -2,2 zm-14,-6 h-7 c-1.057,0 -2,-0.9620000000000001 -2,-2 V2 c0,-1.038 0.9430000000000001,-2 2,-2 h7 c1.057,0 2,0.9620000000000001 2,2 v7 c0,1.038 -0.9430000000000001,2 -2,2 zm0,-8 c0,-0.4 -0.5930000000000001,-1 -1,-1 h-5 c-0.40700000000000003,0 -1,0.6000000000000001 -1,1 v5 c0,0.4 0.5930000000000001,1 1,1 h5 c0.40700000000000003,0 1,-0.6000000000000001 1,-1 V3 zM9,17 H0 v-2 h8 c0.3980000000000001,0 1,-0.6010000000000001 1,-1 V3 c0,-0.3990000000000001 -0.6020000000000001,-1 -1,-1 H3 c-0.3980000000000001,0 -1,0.6010000000000001 -1,1 v5 c0,0.3990000000000001 0.6020000000000001,1 1,1 h3 v2 H2 c-1.032,0 -2,-0.9640000000000001 -2,-2 V2 c0,-1.036 0.9680000000000001,-2 2,-2 h7 c1.032,0 2,0.9640000000000001 2,2 v13 c0,1.036 -0.9680000000000001,2 -2,2 z" filter="url(#c)" id="svg_3" class=""/><path fill="url(#d)" d="M37,17 h-9 v-2 h8 c0.3980000000000001,0 1,-0.6010000000000001 1,-1 V3 c0,-0.3990000000000001 -0.6020000000000001,-1 -1,-1 h-5 c-0.3980000000000001,0 -1,0.6010000000000001 -1,1 v5 c0,0.3990000000000001 0.6020000000000001,1 1,1 h3 v2 h-4 c-1.032,0 -2,-0.9640000000000001 -2,-2 V2 c0,-1.036 0.9680000000000001,-2 2,-2 h7 c1.032,0 2,0.9640000000000001 2,2 v13 c0,1.036 -0.9680000000000001,2 -2,2 zm-14,-6 h-7 c-1.057,0 -2,-0.9620000000000001 -2,-2 V2 c0,-1.038 0.9430000000000001,-2 2,-2 h7 c1.057,0 2,0.9620000000000001 2,2 v7 c0,1.038 -0.9430000000000001,2 -2,2 zm0,-8 c0,-0.4 -0.5930000000000001,-1 -1,-1 h-5 c-0.40700000000000003,0 -1,0.6000000000000001 -1,1 v5 c0,0.4 0.5930000000000001,1 1,1 h5 c0.40700000000000003,0 1,-0.6000000000000001 1,-1 V3 zM9,17 H0 v-2 h8 c0.3980000000000001,0 1,-0.6010000000000001 1,-1 V3 c0,-0.3990000000000001 -0.6020000000000001,-1 -1,-1 H3 c-0.3980000000000001,0 -1,0.6010000000000001 -1,1 v5 c0,0.3990000000000001 0.6020000000000001,1 1,1 h3 v2 H2 c-1.032,0 -2,-0.9640000000000001 -2,-2 V2 c0,-1.036 0.9680000000000001,-2 2,-2 h7 c1.032,0 2,0.9640000000000001 2,2 v13 c0,1.036 -0.9680000000000001,2 -2,2 z" id="svg_4" class=""/></g></svg>