<svg xmlns="http://www.w3.org/2000/svg" width="65.348" height="56.013">
    <defs>
        <filter id="a" width="49" height="21" x="0" y="21" filterUnits="userSpaceOnUse">
            <feOffset dy="1" in="SourceAlpha"/>
            <feGaussianBlur result="blurOut" stdDeviation="1.732"/>
            <feFlood flood-color="#000" result="floodOut"/>
            <feComposite in="floodOut" in2="blurOut" operator="atop"/>
            <feComponentTransfer>
                <feFuncA slope=".45" type="linear"/>
            </feComponentTransfer>
            <feMerge>
                <feMergeNode/>
                <feMergeNode in="SourceGraphic"/>
            </feMerge>
        </filter>
        <linearGradient id="b" x1="0%" x2="0%" y1="100%" y2="0%">
            <stop offset="0%" stop-color="#00905E"/>
            <stop offset="99%" stop-color="#00C78C"/>
        </linearGradient>
        <filter id="c" width="49" height="27" x="0" y="0" filterUnits="userSpaceOnUse">
            <feOffset dy="1" in="SourceAlpha"/>
            <feGaussianBlur result="blurOut" stdDeviation="1.732"/>
            <feFlood flood-color="#000" result="floodOut"/>
            <feComposite in="floodOut" in2="blurOut" operator="atop"/>
            <feComponentTransfer>
                <feFuncA slope=".45" type="linear"/>
            </feComponentTransfer>
            <feMerge>
                <feMergeNode/>
                <feMergeNode in="SourceGraphic"/>
            </feMerge>
        </filter>
        <linearGradient id="d" x1="0%" x2="0%" y1="100%" y2="0%">
            <stop offset="0%" stop-color="#7A3DC6"/>
            <stop offset="100%" stop-color="#B65AE2"/>
        </linearGradient>
    </defs>
    <path fill="#9D5630" fill-rule="evenodd" d="M42 37v-9h-3c-.389 0-1 .598-1 1v8h-2v-9h-3c-.389 0-1 .598-1 1v8h-2v-9c0-1.044.99-2 2-2h12v11h-2zm-17 0h-7c-1.057 0-2-.962-2-2v-7c0-1.038.943-2 2-2h7c1.057 0 2 .962 2 2v7c0 1.038-.943 2-2 2zm0-8c0-.4-.593-1-1-1h-5c-.407 0-1 .6-1 1v5c0 .4.593 1 1 1h5c.407 0 1-.6 1-1v-5zM5 35v-7c0-1.043.952-2 2-2h6v2H8c-.404 0-1 .598-1 1v5c0 .402.596 1 1 1h5v2H7c-1.048 0-2-.956-2-2z" filter="url(#a)"/>
    <path fill="url(#b)" d="M42 37v-9h-3c-.389 0-1 .598-1 1v8h-2v-9h-3c-.389 0-1 .598-1 1v8h-2v-9c0-1.044.99-2 2-2h12v11h-2zm-17 0h-7c-1.057 0-2-.962-2-2v-7c0-1.038.943-2 2-2h7c1.057 0 2 .962 2 2v7c0 1.038-.943 2-2 2zm0-8c0-.4-.593-1-1-1h-5c-.407 0-1 .6-1 1v5c0 .4.593 1 1 1h5c.407 0 1-.6 1-1v-5zM5 35v-7c0-1.043.952-2 2-2h6v2H8c-.404 0-1 .598-1 1v5c0 .402.596 1 1 1h5v2H7c-1.048 0-2-.956-2-2z"/>
    <path fill="#484848" fill-rule="evenodd" d="M42 22h-9v-2h8c.398 0 1-.601 1-1V8c0-.399-.602-1-1-1h-5c-.398 0-1 .601-1 1v5c0 .399.602 1 1 1h3v2h-4c-1.032 0-2-.964-2-2V7c0-1.036.968-2 2-2h7c1.032 0 2 .964 2 2v13c0 1.036-.968 2-2 2zm-14-6h-7c-1.057 0-2-.962-2-2V7c0-1.038.943-2 2-2h7c1.057 0 2 .962 2 2v7c0 1.038-.943 2-2 2zm0-8c0-.4-.593-1-1-1h-5c-.407 0-1 .6-1 1v5c0 .4.593 1 1 1h5c.407 0 1-.6 1-1V8zM14 22H5v-2h8c.398 0 1-.601 1-1V8c0-.399-.602-1-1-1H8c-.398 0-1 .601-1 1v5c0 .399.602 1 1 1h3v2H7c-1.032 0-2-.964-2-2V7c0-1.036.968-2 2-2h7c1.032 0 2 .964 2 2v13c0 1.036-.968 2-2 2z" filter="url(#c)"/>
    <path fill="url(#d)" d="M42 22h-9v-2h8c.398 0 1-.601 1-1V8c0-.399-.602-1-1-1h-5c-.398 0-1 .601-1 1v5c0 .399.602 1 1 1h3v2h-4c-1.032 0-2-.964-2-2V7c0-1.036.968-2 2-2h7c1.032 0 2 .964 2 2v13c0 1.036-.968 2-2 2zm-14-6h-7c-1.057 0-2-.962-2-2V7c0-1.038.943-2 2-2h7c1.057 0 2 .962 2 2v7c0 1.038-.943 2-2 2zm0-8c0-.4-.593-1-1-1h-5c-.407 0-1 .6-1 1v5c0 .4.593 1 1 1h5c.407 0 1-.6 1-1V8zM14 22H5v-2h8c.398 0 1-.601 1-1V8c0-.399-.602-1-1-1H8c-.398 0-1 .601-1 1v5c0 .399.602 1 1 1h3v2H7c-1.032 0-2-.964-2-2V7c0-1.036.968-2 2-2h7c1.032 0 2 .964 2 2v13c0 1.036-.968 2-2 2z"/>
</svg>
