<svg xmlns="http://www.w3.org/2000/svg" width=".6cm" height="19.994">
    <path fill="#262626" fill-rule="evenodd" d="M16.52 1.577l-1.55-.062-2.129 8.77-.478.724H3.114l-.362-.724L.938 2.886l1.739-.108 1.696 6.721h6.766l2.317-8.97.986-.529 2.527.032-.449 1.545zM5.313 7.625V7.25h5.124v.375H5.313zM5 5.219h5.875v.375H5v-.375zm-.75-2.031h7.187v.375H4.25v-.375zm.538 8.847c.815 0 1.475.663 1.475 1.482S5.603 15 4.788 15a1.479 1.479 0 0 1-1.474-1.483c0-.819.66-1.482 1.474-1.482zm6.142 0c.814 0 1.474.663 1.474 1.482S11.744 15 10.93 15a1.479 1.479 0 0 1-1.475-1.483c0-.819.66-1.482 1.475-1.482z" opacity=".851"/>
</svg>
